<mxfile host="Electron" agent="Mozilla/5.0 (Windows NT 10.0; Win64; x64) AppleWebKit/537.36 (KHTML, like Gecko) draw.io/26.0.16 Chrome/132.0.6834.196 Electron/34.2.0 Safari/537.36" version="26.0.16">
  <diagram name="Page-1" id="-uLFUtmwZn0YJJzUqLdM">
    <mxGraphModel dx="458" dy="683" grid="1" gridSize="10" guides="1" tooltips="1" connect="1" arrows="1" fold="1" page="1" pageScale="1" pageWidth="827" pageHeight="1169" math="0" shadow="0">
      <root>
        <mxCell id="0" />
        <mxCell id="1" parent="0" />
        <mxCell id="XVPDNYDgpjfZN95rGrQQ-10" value="Player" style="html=1;whiteSpace=wrap;" vertex="1" parent="1">
          <mxGeometry x="510" y="690" width="110" height="50" as="geometry" />
        </mxCell>
        <mxCell id="XVPDNYDgpjfZN95rGrQQ-11" value="Ball" style="html=1;whiteSpace=wrap;" vertex="1" parent="1">
          <mxGeometry x="310" y="170" width="110" height="50" as="geometry" />
        </mxCell>
        <mxCell id="XVPDNYDgpjfZN95rGrQQ-13" value="Game" style="html=1;whiteSpace=wrap;" vertex="1" parent="1">
          <mxGeometry x="230" y="820" width="110" height="50" as="geometry" />
        </mxCell>
        <mxCell id="XVPDNYDgpjfZN95rGrQQ-14" value="Team" style="html=1;whiteSpace=wrap;" vertex="1" parent="1">
          <mxGeometry x="230" y="690" width="110" height="50" as="geometry" />
        </mxCell>
        <mxCell id="XVPDNYDgpjfZN95rGrQQ-15" value="League" style="html=1;whiteSpace=wrap;" vertex="1" parent="1">
          <mxGeometry x="230" y="534.5" width="110" height="50" as="geometry" />
        </mxCell>
        <mxCell id="XVPDNYDgpjfZN95rGrQQ-17" value="" style="endArrow=none;html=1;rounded=0;exitX=1;exitY=0.5;exitDx=0;exitDy=0;entryX=0;entryY=0.5;entryDx=0;entryDy=0;" edge="1" parent="1" source="XVPDNYDgpjfZN95rGrQQ-14" target="XVPDNYDgpjfZN95rGrQQ-10">
          <mxGeometry width="50" height="50" relative="1" as="geometry">
            <mxPoint x="390" y="840" as="sourcePoint" />
            <mxPoint x="440" y="790" as="targetPoint" />
          </mxGeometry>
        </mxCell>
        <mxCell id="XVPDNYDgpjfZN95rGrQQ-18" value="belongs to" style="edgeLabel;html=1;align=center;verticalAlign=middle;resizable=0;points=[];" vertex="1" connectable="0" parent="XVPDNYDgpjfZN95rGrQQ-17">
          <mxGeometry x="-0.1059" relative="1" as="geometry">
            <mxPoint as="offset" />
          </mxGeometry>
        </mxCell>
        <mxCell id="XVPDNYDgpjfZN95rGrQQ-19" value="m" style="edgeLabel;html=1;align=center;verticalAlign=middle;resizable=0;points=[];" vertex="1" connectable="0" parent="XVPDNYDgpjfZN95rGrQQ-17">
          <mxGeometry x="0.8588" relative="1" as="geometry">
            <mxPoint as="offset" />
          </mxGeometry>
        </mxCell>
        <mxCell id="XVPDNYDgpjfZN95rGrQQ-20" value="1" style="edgeLabel;html=1;align=center;verticalAlign=middle;resizable=0;points=[];" vertex="1" connectable="0" parent="XVPDNYDgpjfZN95rGrQQ-17">
          <mxGeometry x="-0.8588" relative="1" as="geometry">
            <mxPoint as="offset" />
          </mxGeometry>
        </mxCell>
        <mxCell id="XVPDNYDgpjfZN95rGrQQ-21" value="" style="endArrow=none;html=1;rounded=0;entryX=0.5;entryY=1;entryDx=0;entryDy=0;exitX=0.5;exitY=0;exitDx=0;exitDy=0;" edge="1" parent="1" source="XVPDNYDgpjfZN95rGrQQ-13" target="XVPDNYDgpjfZN95rGrQQ-14">
          <mxGeometry width="50" height="50" relative="1" as="geometry">
            <mxPoint x="430" y="850" as="sourcePoint" />
            <mxPoint x="480" y="800" as="targetPoint" />
          </mxGeometry>
        </mxCell>
        <mxCell id="XVPDNYDgpjfZN95rGrQQ-22" value="M" style="edgeLabel;html=1;align=center;verticalAlign=middle;resizable=0;points=[];" vertex="1" connectable="0" parent="XVPDNYDgpjfZN95rGrQQ-21">
          <mxGeometry x="0.7345" y="1" relative="1" as="geometry">
            <mxPoint as="offset" />
          </mxGeometry>
        </mxCell>
        <mxCell id="XVPDNYDgpjfZN95rGrQQ-24" value="M" style="edgeLabel;html=1;align=center;verticalAlign=middle;resizable=0;points=[];" vertex="1" connectable="0" parent="XVPDNYDgpjfZN95rGrQQ-21">
          <mxGeometry x="-0.7226" y="1" relative="1" as="geometry">
            <mxPoint as="offset" />
          </mxGeometry>
        </mxCell>
        <mxCell id="XVPDNYDgpjfZN95rGrQQ-25" value="plays" style="edgeLabel;html=1;align=center;verticalAlign=middle;resizable=0;points=[];" vertex="1" connectable="0" parent="XVPDNYDgpjfZN95rGrQQ-21">
          <mxGeometry x="-0.0369" y="-4" relative="1" as="geometry">
            <mxPoint as="offset" />
          </mxGeometry>
        </mxCell>
        <mxCell id="XVPDNYDgpjfZN95rGrQQ-27" value="" style="endArrow=none;html=1;rounded=0;exitX=1;exitY=0.5;exitDx=0;exitDy=0;entryX=0.5;entryY=1;entryDx=0;entryDy=0;" edge="1" parent="1" source="XVPDNYDgpjfZN95rGrQQ-13" target="XVPDNYDgpjfZN95rGrQQ-10">
          <mxGeometry width="50" height="50" relative="1" as="geometry">
            <mxPoint x="470" y="885" as="sourcePoint" />
            <mxPoint x="550" y="770" as="targetPoint" />
          </mxGeometry>
        </mxCell>
        <mxCell id="XVPDNYDgpjfZN95rGrQQ-28" value="plays" style="edgeLabel;html=1;align=center;verticalAlign=middle;resizable=0;points=[];" vertex="1" connectable="0" parent="XVPDNYDgpjfZN95rGrQQ-27">
          <mxGeometry x="0.0123" y="1" relative="1" as="geometry">
            <mxPoint as="offset" />
          </mxGeometry>
        </mxCell>
        <mxCell id="XVPDNYDgpjfZN95rGrQQ-29" value="m&amp;nbsp;" style="edgeLabel;html=1;align=center;verticalAlign=middle;resizable=0;points=[];" vertex="1" connectable="0" parent="XVPDNYDgpjfZN95rGrQQ-27">
          <mxGeometry x="-0.7731" relative="1" as="geometry">
            <mxPoint as="offset" />
          </mxGeometry>
        </mxCell>
        <mxCell id="XVPDNYDgpjfZN95rGrQQ-30" value="m" style="edgeLabel;html=1;align=center;verticalAlign=middle;resizable=0;points=[];" vertex="1" connectable="0" parent="XVPDNYDgpjfZN95rGrQQ-27">
          <mxGeometry x="0.7257" y="2" relative="1" as="geometry">
            <mxPoint as="offset" />
          </mxGeometry>
        </mxCell>
        <mxCell id="XVPDNYDgpjfZN95rGrQQ-31" value="" style="endArrow=none;html=1;rounded=0;entryX=0.5;entryY=1;entryDx=0;entryDy=0;exitX=0.5;exitY=0;exitDx=0;exitDy=0;" edge="1" parent="1" source="XVPDNYDgpjfZN95rGrQQ-14" target="XVPDNYDgpjfZN95rGrQQ-15">
          <mxGeometry width="50" height="50" relative="1" as="geometry">
            <mxPoint x="280" y="710" as="sourcePoint" />
            <mxPoint x="330" y="660" as="targetPoint" />
          </mxGeometry>
        </mxCell>
        <mxCell id="XVPDNYDgpjfZN95rGrQQ-33" value="1" style="edgeLabel;html=1;align=center;verticalAlign=middle;resizable=0;points=[];" vertex="1" connectable="0" parent="XVPDNYDgpjfZN95rGrQQ-31">
          <mxGeometry x="0.7535" y="-2" relative="1" as="geometry">
            <mxPoint as="offset" />
          </mxGeometry>
        </mxCell>
        <mxCell id="XVPDNYDgpjfZN95rGrQQ-34" value="m" style="edgeLabel;html=1;align=center;verticalAlign=middle;resizable=0;points=[];" vertex="1" connectable="0" parent="XVPDNYDgpjfZN95rGrQQ-31">
          <mxGeometry x="-0.6789" y="2" relative="1" as="geometry">
            <mxPoint as="offset" />
          </mxGeometry>
        </mxCell>
        <mxCell id="XVPDNYDgpjfZN95rGrQQ-35" value="plays" style="edgeLabel;html=1;align=center;verticalAlign=middle;resizable=0;points=[];" vertex="1" connectable="0" parent="XVPDNYDgpjfZN95rGrQQ-31">
          <mxGeometry x="-0.0953" relative="1" as="geometry">
            <mxPoint as="offset" />
          </mxGeometry>
        </mxCell>
      </root>
    </mxGraphModel>
  </diagram>
</mxfile>
